<svg xmlns="http://www.w3.org/2000/svg" viewBox="0 0 275.56 53.16"><defs><style>.cls-1{fill:#00a49e;}</style></defs><g id="Layer_2" data-name="Layer 2"><g id="レイヤー_1" data-name="レイヤー 1"><polygon class="cls-1" points="171.73 41.47 185.2 0 172.4 0 155.12 53.16 184.89 53.16 188.69 41.47 171.73 41.47"/><polygon class="cls-1" points="65.79 0 31.33 53.16 59.32 53.16 63.12 41.47 51.84 41.47 65.35 20.62 64.28 53.15 78.97 53.15 80.73 0 65.79 0"/><polygon class="cls-1" points="139.4 0 104.94 53.16 132.93 53.16 136.73 41.47 125.44 41.47 138.96 20.62 137.88 53.15 152.57 53.15 154.33 0 139.4 0"/><polygon class="cls-1" points="128.36 0 89.53 0 85.73 11.7 98.78 11.7 85.31 53.16 98.12 53.16 111.59 11.7 124.56 11.7 128.36 0"/><path class="cls-1" d="M33.09,0C21.81,0,7.48,6.43,1.7,23.57-4.45,41.79,7.12,53.16,20.05,53.16H29l3.8-11.69H22.29c-7.48,0-11.1-5.12-9.11-12.65C15.52,20,23.21,11.7,34.27,11.7H42.1L45.9,0Z"/><polygon class="cls-1" points="234.99 11.7 238.79 0 206.75 0 189.48 53.16 221.51 53.16 225.31 41.47 206.09 41.47 209.03 32.43 228.25 32.43 232.05 20.73 212.82 20.73 215.76 11.7 234.99 11.7"/><path class="cls-1" d="M264.12,0H243.38L226.1,53.16h12.81l6.74-20.73h2.24c5,0,7.06,3.94,5.75,8.76-.95,3.47-3.35,12-3.35,12H263.1s2.62-9.2,3.67-13.1c1.2-4.5.06-8.69-3.29-10.29,3.73-.77,9.12-4.11,11.55-14.3C277.23,6.26,272.37,0,264.12,0Zm-2.53,17c-1.49,4-4.44,3.77-7.26,3.77h-4.88l2.94-9h5C260.5,11.7,262.9,13.45,261.59,17Z"/></g></g></svg>