<svg version="1.2" xmlns="http://www.w3.org/2000/svg" viewBox="0 0 1523 1238" width="1523" height="1238"><style>.a{fill:#e11e3a}</style><path fill-rule="evenodd" class="a" d="m31.1 973.2c75-1.8 149.3-3.5 223.7-4.7 1.2 1.2 1.8 3.5 2.9 6.5 8.8 26.3 25.8 45.6 49.8 58.5 22.3 12.9 46.9 17.6 71.5 19.9 36.3 2.3 72 0.6 107.7-7.6 32.8-7.6 59.8-25.2 81.4-50.4 5.9-7 11.8-14.6 17.6-21 14.7-18.2 22.9-38.7 24.6-62.1 1.8-47.4 0.6-94.2-2.9-140.5 0-1.2-1.2-2.3-2.4-3.5-5.8 1.2-6.4 6.4-9.3 9.9-21.1 29.3-46.9 53.9-79.1 70.3-17.6 9.4-36.3 14.6-55.6 15.8-30.5 0.6-61.5 3.5-92 2.3-65.6-2.3-129.4-14-188-44.4-27.5-14.1-50.9-33.4-73.2-53.9-58.5-52.7-88.4-120-99-197.3-5.8-42.7-9.3-84.3-7.6-127.6 3.5-99.6 23.5-195 66.8-285.2 36.3-73.7 95.5-119.4 172.2-142.2 45.7-13.5 92.5-16.4 139.9-11.7 28.7 2.9 58 5.2 86.1 11.7 59.2 12.9 105.5 44.5 136.5 97.2 1.8 3.5 3.5 5.8 5.9 9.3 0 0 1.7 0 4.1 0.6 3.5-35.7 0.5-70.2 3.5-105.4 11.1-4.1 195-2.9 220.8 1.2 3.5 33.4-1.2 67.3 0 103 4.6-3.5 7-5.2 9.3-6.4 55.1-59.7 123-97.8 203.8-108.9 27.6-4.7 55.7-5.8 83.8-5.8 55 1.1 108.9 9.3 159.9 31 19.9 9.4 39.2 21.1 58.5 32.8 29.3 18.1 57.4 39.2 82.6 63.2 22.3 20.5 40.4 43.9 52.1 72 7.1 16.4 10.6 33.4 10.6 51.5 2.3 42.2 4.1 84.3 5.8 126.5 1.8 46.2 5.3 93.1 7.1 139.3 2.3 41.6 4.1 83.8 5.2 125.3 1.8 42.2 4.1 84.9 5.3 127.6 1.2 27 0.6 54.5 1.2 82 0 6.5-1.2 12.9-1.2 20.5-17.6 1.2-34 3.5-49.8 3.5-182.1 0-363.1 0-545.2 0.6h-15.8c-0.6 4.1-1.8 5.9-1.8 8.2-0.6 25.8 1.8 50.9 7.6 76.1 5.3 21.1 16.4 38.1 33.4 52.1 25.8 20.5 55.1 33.4 86.1 40.4 43.3 8.8 86.7 9.4 130 0.6 42.8-9.4 77.9-31 103.1-67.9 3.5-5.3 7.6-9.4 15.2-9.4 70.3 0 140 0 210.3 0 3.5 0 5.8 0 9.3 1.2 3.6 12.9 0 24.6-3.5 36.3-12.9 53.3-41.5 97.8-83.7 132.3-36.9 29.9-77.3 53.9-122.4 69.1-27.5 9.3-55.7 14-84.4 17-53.3 5.2-106 6.4-159.3 4.6-68.5-1.7-133.5-16.4-193.2-50.9-32.2-18.7-60.3-42.7-82.6-72.6-2.3-3.5-5.3-6.4-8.2-11.1-4.1 3.5-6.4 5.3-9.4 7.6-56.2 50.3-121.8 82.5-194.4 101.9-38.1 9.9-76.7 15.2-116 16.4-50.9 1.1-102.5-1.2-152.2-11.8-62.7-13.4-120.7-37.4-171.1-79-47.4-39.2-77.3-89.6-91.9-149.9-1.2-3.5-1.2-7-1.2-12.3m880.9-241.8c118.8 2.4 236 3.6 354.9 5.9 0-110.1 0-239.4 0-350.1 0-12.9 0-26.3 0-39.2 0-4.1 0-8.8-1.8-12.9-8.2-25.8-19.3-50.9-34.5-73.2-34-48-79.1-74.3-139.4-73.8-41.6 0-78.5 11.2-109 38.7-25.1 22.2-45.6 48.6-60.3 79-2.9 5.9-3.5 11.7-4.1 17.6-0.6 24-0.6 48.6-1.2 72.6q-1.7 86.9-3.5 173.9c0 48.6-0.6 96.6-1.1 145.2 0 4.6 0 9.3 0 16.3zm-305.8-292.1c-0.5-8.2-0.5-20.5-1.7-32.8-8.2-67.3-31.1-127.6-81.4-175.6-48.6-45.1-117.2-59.1-181-19.9-34.5 21.1-60.9 51.5-78.5 87.8-46.2 94.3-47.4 191.4-5.2 287.5 17.5 39.8 45.1 73.1 83.7 96 44.5 26.3 90.2 28.7 137.1 5.8 33.9-17 58.5-42.1 78.4-72.6 34-52.1 47.5-110 48.1-175z"/></svg>